<svg xmlns="http://www.w3.org/2000/svg" viewBox="0 0 24 24" id="work-fast">
  <path d="M10 20c.9 0 1.9-.2 2.7-.5.5-.2.8-.8.6-1.3-.2-.5-.8-.8-1.3-.6-.6.3-1.3.4-2 .4-3.3 0-6-2.7-6-6s2.7-6 6-6c.9 0 1.8.2 2.5.6.5.2 1.1 0 1.3-.5.2-.5 0-1.1-.5-1.3-1-.5-2.1-.8-3.3-.8-4.4 0-8 3.6-8 8s3.6 8 8 8zm4-8c0 .6.4 1 1 1h4c.6 0 1-.4 1-1s-.4-1-1-1h-4c-.6 0-1 .4-1 1z"></path>
  <path d="M17 7h-3c-.6 0-1 .4-1 1s.4 1 1 1h3c.6 0 1-.4 1-1s-.4-1-1-1zm5 9c0-.6-.4-1-1-1h-7c-.6 0-1 .4-1 1s.4 1 1 1h7c.6 0 1-.4 1-1zM9 10v1.4l-1.4.7c-.5.2-.7.8-.4 1.3.1.4.4.6.8.6.1 0 .3 0 .4-.1l2-1c.3-.2.6-.5.6-.9v-2c0-.6-.4-1-1-1s-1 .4-1 1z"></path>
</svg>
