<svg xmlns="http://www.w3.org/2000/svg" viewBox="0 0 64 64" id="security">
  <path d="M25.963 39.852c.063.818 1.711 20.093 15.722 24.109a.989.989 0 0 0 .55 0c14.011-4.016 15.659-23.291 15.722-24.109a1 1 0 0 0-.585-.989l-15-6.774a1 1 0 0 0-.824 0l-15 6.774a1 1 0 0 0-.585.989Zm16-5.755 13.927 6.29c-.424 3.385-2.9 18.176-13.927 21.57-11.032-3.394-13.5-18.185-13.927-21.57Z"></path>
  <path d="M8.44 64h24.52v-2H8.44a1.482 1.482 0 0 1-1.48-1.48V47.17A15.187 15.187 0 0 1 22.13 32h7.66a14.718 14.718 0 0 1 4.748.767l.644-1.894A16.739 16.739 0 0 0 29.79 30h-7.66A17.19 17.19 0 0 0 4.96 47.17v13.35A3.484 3.484 0 0 0 8.44 64zm16.52-40h2a10.011 10.011 0 0 0 10-10v-4a10.011 10.011 0 0 0-10-10h-2a10.011 10.011 0 0 0-10 10v4a10.011 10.011 0 0 0 10 10zm-8-14a8.009 8.009 0 0 1 8-8h2a8.009 8.009 0 0 1 8 8v4a8.009 8.009 0 0 1-8 8h-2a8.009 8.009 0 0 1-8-8z"></path>
</svg>
